<?xml version="1.0" encoding="utf-8"?>
<!-- Generator: Adobe Illustrator 24.1.2, SVG Export Plug-In . SVG Version: 6.00 Build 0)  -->
<svg version="1.1" id="Camada_1" xmlns="http://www.w3.org/2000/svg" xmlns:xlink="http://www.w3.org/1999/xlink" x="0px" y="0px"
	 viewBox="0 0 409.6 311.4" style="enable-background:new 0 0 409.6 311.4;" xml:space="preserve">
<g>
	<path d="M0,279.5C0,197,0,114.5,0,32c1.2-3.8,1.9-7.8,3.7-11.3C10.8,6.4,22.8,0,38.6,0C149.4,0,260.2,0,371,0c0.7,0,1.3,0,2,0
		c12.2,0.3,22.6,4.7,29.4,14.9c3.4,5,4.9,11.3,7.2,17c0,82.5,0,165,0,247.5c-1.2,3.8-1.9,7.8-3.7,11.3c-7.2,14.3-19.2,20.7-35,20.7
		c-110.8,0-221.5,0-332.3,0c-0.7,0-1.3,0-2,0c-12.2-0.3-22.6-4.7-29.4-14.9C3.9,291.5,2.4,285.2,0,279.5z M367.5,24.3
		c-108.5,0-216.9,0-326,0c55,54.4,109.4,108.3,163.7,162C259.4,132.1,313.4,78.2,367.5,24.3z M157.6,173.1
		c-38.4,38.4-76.7,76.5-114.2,114c107.3,0,215.8,0,323,0c-37.6-37.5-75.6-75.4-113.8-113.6c-12,12.1-24.5,24.6-37,37.2
		c-6.7,6.7-13.1,6.7-19.8,0.1c-11.9-11.7-23.7-23.4-35.5-35.1C159.1,174.5,158,173.4,157.6,173.1z M24.3,41.1
		c0,76.8,0,152.6,0,228.5c38.3-38.3,76.5-76.3,114.9-114.7C101.2,117.2,63,79.4,24.3,41.1z M385.3,269.4c0-75.8,0-151.7,0-226.5
		c-37.7,37.6-75.7,75.6-113.5,113.3C309.4,193.6,347.3,231.5,385.3,269.4z"/>
</g>
</svg>
