<?xml version="1.0" encoding="utf-8"?>
<!-- Generator: Adobe Illustrator 24.1.2, SVG Export Plug-In . SVG Version: 6.00 Build 0)  -->
<svg version="1.1" id="Camada_1" xmlns="http://www.w3.org/2000/svg" xmlns:xlink="http://www.w3.org/1999/xlink" x="0px" y="0px"
	 viewBox="0 0 304.8 304.8" style="enable-background:new 0 0 304.8 304.8;" xml:space="preserve">
<path d="M26.8,0c83.8,0,167.6,0,251.4,0c1.8,0.4,3.6,0.7,5.4,1.2c13.2,3.5,21.1,13.9,21.1,28.1c0,82.2,0,164.4,0,246.6
	c0,6.4-1.6,12.5-5.6,17.8c-6.2,8.1-14.7,11.1-24.5,11.1c-79.6,0-159.2,0-238.9,0c-3.7,0-7.3-0.2-11-0.5
	c-11.9-0.8-21.4-9.9-23.9-21.5c-0.3-1.5-0.6-3-0.9-4.6c0-83.8,0-167.6,0-251.4c0.3-0.8,0.7-1.6,0.8-2.5C1.8,13,11.5,2.5,22.6,0.8
	C24,0.6,25.4,0.3,26.8,0z M167.6,129.5c0-2.8,0-5.9,0-9c0-5.7-3.2-8.8-8.8-8.8c-11,0-22,0-33.1,0c-6,0-9.2,3.1-9.2,9.2
	c0,47.2,0,94.3,0,141.5c0,6.3,3.2,9.4,9.6,9.4c10.6,0,21.2,0,31.9,0c6.5,0,9.6-3.1,9.6-9.7c0-24,0-48.1,0-72.1
	c0-7.9,1.7-15.3,5.1-22.4c4.9-10.2,14.1-15.4,25.4-14.3c10.7,1,18.1,7.1,20.8,18.2c1.4,5.6,2.2,11.5,2.3,17.3
	c0.2,24.6,0.1,49.2,0.1,73.9c0,6.1,3,9.1,9.1,9.1c11.1,0,22.2,0,33.4,0c6.5,0,9.7-3.2,9.7-9.7c-0.1-28.7-0.1-57.4-0.6-86.1
	c-0.2-11.7-2-23.3-6.4-34.3c-4.9-12.2-12.6-21.8-24.7-27.3c-11.6-5.3-24-5.9-36.4-4.8c-9.1,0.8-17.9,3-25.3,8.6
	C175.6,121.7,171.7,125.8,167.6,129.5z M43.8,191.7c0,23.4,0,46.8,0,70.3c0,6.6,3.2,9.8,9.9,9.8c9.9,0,19.8,0,29.8,0
	c8.5,0,11.4-2.9,11.4-11.5c0-45.7,0-91.5,0-137.2c0-0.8,0-1.6,0-2.4c-0.3-5.7-3.7-9-9.3-9c-10.7,0-21.4,0-32.2,0
	c-6.5,0-9.6,3.2-9.6,9.7C43.8,144.9,43.8,168.3,43.8,191.7z M102.1,66.2c0-18.1-14.8-33-32.8-33c-17.9,0-32.9,14.6-32.8,32.8
	c0,18.8,14.7,32.8,32.9,33C87.3,99.2,102.1,84.2,102.1,66.2z"/>
</svg>
