<?xml version="1.0" encoding="utf-8"?>
<!-- Generator: Adobe Illustrator 25.0.0, SVG Export Plug-In . SVG Version: 6.00 Build 0)  -->
<svg version="1.1" id="Camada_1" xmlns="http://www.w3.org/2000/svg" xmlns:xlink="http://www.w3.org/1999/xlink" x="0px" y="0px"
	 viewBox="0 0 1058.2 287.1" style="enable-background:new 0 0 1058.2 287.1;" xml:space="preserve">
<style type="text/css">
	.st0{fill:#1B3C6D;}
	.st1{fill:url(#SVGID_1_);}
	.st2{fill:url(#SVGID_2_);}
	.st3{fill:url(#SVGID_3_);}
	.st4{fill:url(#SVGID_4_);}
	.st5{fill:url(#SVGID_5_);}
	.st6{fill:url(#SVGID_6_);}
	.st7{fill:#575757;stroke:#4F4F4F;stroke-width:0.25;stroke-miterlimit:10;}
	.st8{fill:#575757;}
	.st9{fill:#585758;}
</style>
<g id="Camada_2_1_">
	<g id="PRINCIPAL">
		<path class="st0" d="M187.4,194.9h324.8c3.9,0,7,3.1,7.1,7v75.2c0,3.9-3.2,7-7.1,7H255.5c-52.1,0-71.5-53.6-71-86.5
			C184.5,196.1,185.8,194.8,187.4,194.9z"/>
		<path class="st0" d="M512.1,194.9c3.9,0,7,3.1,7.1,7v75.2c0,3.9-3.2,7-7.1,7H255.5c-52.1,0-71.5-53.6-71-86.5
			c0-1.5,1.3-2.8,2.8-2.8L512.1,194.9 M512.1,193.8H187.4c-2.1,0-3.8,1.7-3.8,3.8c-0.3,19.2,6.2,48.6,25.7,68.4
			c12.5,12.7,28,19.1,46.3,19.1h256.6c4.4,0,8-3.6,8.1-8v-75.2C520.1,197.5,516.5,193.9,512.1,193.8L512.1,193.8z"/>
		<path class="st0" d="M512.1,1H3.8C2.3,1,1,2.2,1,3.7C0,36.6,30.2,90.3,110.8,90.3h401.3c3.9,0,7-3.1,7.1-7V8
			C519.1,4.1,516,1,512.1,1z"/>
		<path class="st0" d="M512.1,1c3.9,0,7,3.2,7.1,7.1v75.2c0,3.9-3.2,7-7.1,7H110.8C30.2,90.3,0,36.6,0.9,3.7C0.9,2.2,2.2,1,3.7,1
			H512.1 M512.1,0H3.8C1.7,0,0,1.6,0,3.7C-0.1,13.1,1.7,22.4,5.3,31c4.3,10.5,10.6,20.1,18.5,28.2c14.2,14.6,40.8,32.1,87,32.1
			h401.3c4.4,0,8-3.6,8.1-8V8C520.1,3.6,516.5,0,512.1,0L512.1,0z"/>
		<path class="st0" d="M512.1,97.9H103.4c-1.5,0-2.8,1.2-2.8,2.8c-0.7,32.9,23.6,86.5,88.8,86.5h322.8c3.9,0,7-3.1,7.1-7V105
			C519.1,101.1,516,97.9,512.1,97.9z"/>
		<path class="st0" d="M512.1,97.9c3.9,0,7,3.1,7.1,7v75.2c0,3.9-3.2,7-7.1,7H189.3c-65.1,0-89.5-53.6-88.8-86.5
			c0-1.5,1.3-2.8,2.8-2.8H512 M512.1,96.8H103.4c-2.1,0-3.8,1.7-3.8,3.7c-0.4,17.2,6,42.6,25.2,62.3c16.2,16.6,38.5,25.3,64.5,25.3
			h322.8c4.4,0,8-3.6,8.1-8V105c0-4.4-3.6-8-8.1-8V96.8z"/>
		<g>
			
				<linearGradient id="SVGID_1_" gradientUnits="userSpaceOnUse" x1="1.9239" y1="771.4173" x2="522.1639" y2="771.4173" gradientTransform="matrix(1 0 0 1 0 -529.92)">
				<stop  offset="0.87" style="stop-color:#2D5CA5"/>
				<stop  offset="0.87" style="stop-color:#2C599F"/>
				<stop  offset="0.91" style="stop-color:#284C85"/>
				<stop  offset="0.93" style="stop-color:#26477B"/>
			</linearGradient>
			<path class="st1" d="M189.4,196.9h324.8c3.9,0,7,3.1,7.1,7v75.2c0,3.9-3.2,7-7.1,7H257.5c-52.1,0-71.5-53.6-71-86.5
				C186.5,198.1,187.8,196.8,189.4,196.9z"/>
			
				<linearGradient id="SVGID_2_" gradientUnits="userSpaceOnUse" x1="1.9239" y1="771.37" x2="522.1639" y2="771.37" gradientTransform="matrix(1 0 0 1 0 -529.92)">
				<stop  offset="0.87" style="stop-color:#2D5CA5"/>
				<stop  offset="0.87" style="stop-color:#2C599F"/>
				<stop  offset="0.91" style="stop-color:#284C85"/>
				<stop  offset="0.93" style="stop-color:#26477B"/>
			</linearGradient>
			<path class="st2" d="M514.1,196.9c3.9,0,7,3.1,7.1,7v75.2c0,3.9-3.2,7-7.1,7H257.5c-52.1,0-71.5-53.6-71-86.5
				c0-1.5,1.3-2.8,2.8-2.8L514.1,196.9 M514.1,195.8H189.4c-2.1,0-3.8,1.7-3.8,3.8c-0.3,19.2,6.2,48.6,25.7,68.4
				c12.5,12.7,28,19.1,46.3,19.1h256.6c4.4,0,8-3.6,8.1-8v-75.2C522.1,199.5,518.5,195.9,514.1,195.8L514.1,195.8z"/>
			
				<linearGradient id="SVGID_3_" gradientUnits="userSpaceOnUse" x1="1.9239" y1="577.57" x2="522.1639" y2="577.57" gradientTransform="matrix(1 0 0 1 0 -529.92)">
				<stop  offset="0.87" style="stop-color:#2D5CA5"/>
				<stop  offset="0.87" style="stop-color:#2C599F"/>
				<stop  offset="0.91" style="stop-color:#284C85"/>
				<stop  offset="0.93" style="stop-color:#26477B"/>
			</linearGradient>
			<path class="st3" d="M514.1,3H5.8C4.3,3,3,4.2,3,5.7C2.1,38.6,32.2,92.3,112.9,92.3h401.3c3.9,0,7-3.1,7.1-7V10
				C521.1,6.1,518,3,514.1,3z"/>
			
				<linearGradient id="SVGID_4_" gradientUnits="userSpaceOnUse" x1="2" y1="577.52" x2="522.2039" y2="577.52" gradientTransform="matrix(1 0 0 1 0 -529.92)">
				<stop  offset="0.87" style="stop-color:#2D5CA5"/>
				<stop  offset="0.87" style="stop-color:#2C599F"/>
				<stop  offset="0.91" style="stop-color:#284C85"/>
				<stop  offset="0.93" style="stop-color:#26477B"/>
			</linearGradient>
			<path class="st4" d="M514.1,3c3.9,0,7,3.2,7.1,7.1v75.2c0,3.9-3.2,7-7.1,7H112.8C32.1,92.3,2,38.6,2.9,5.7C2.9,4.2,4.2,3,5.7,3
				L514.1,3 M514.1,1.9H5.8C3.7,1.9,2,3.5,2,5.6C1.9,15,3.7,24.3,7.3,32.9C11.6,43.4,17.9,53,25.8,61.1c14.2,14.7,40.8,32.2,87,32.2
				h401.3c4.4,0,8-3.6,8.1-8V10C522.1,5.6,518.5,2,514.1,1.9L514.1,1.9z"/>
			
				<linearGradient id="SVGID_5_" gradientUnits="userSpaceOnUse" x1="1.9239" y1="674.47" x2="522.1639" y2="674.47" gradientTransform="matrix(1 0 0 1 0 -529.92)">
				<stop  offset="0.87" style="stop-color:#2D5CA5"/>
				<stop  offset="0.87" style="stop-color:#2C599F"/>
				<stop  offset="0.91" style="stop-color:#284C85"/>
				<stop  offset="0.93" style="stop-color:#26477B"/>
			</linearGradient>
			<path class="st5" d="M514.1,99.9H105.4c-1.5,0-2.8,1.2-2.8,2.8c-0.7,32.9,23.6,86.5,88.8,86.5h322.8c3.9,0,7-3.1,7.1-7V107
				C521.1,103.1,518,99.9,514.1,99.9z"/>
			
				<linearGradient id="SVGID_6_" gradientUnits="userSpaceOnUse" x1="1.9239" y1="674.37" x2="522.1639" y2="674.37" gradientTransform="matrix(1 0 0 1 0 -529.92)">
				<stop  offset="0.87" style="stop-color:#2D5CA5"/>
				<stop  offset="0.87" style="stop-color:#2C599F"/>
				<stop  offset="0.91" style="stop-color:#284C85"/>
				<stop  offset="0.93" style="stop-color:#26477B"/>
			</linearGradient>
			<path class="st6" d="M514.1,99.9c3.9,0,7,3.1,7.1,7v75.2c0,3.9-3.2,7-7.1,7H191.3c-65.1,0-89.5-53.6-88.8-86.5
				c0-1.5,1.3-2.8,2.8-2.8H514 M514.1,98.8H105.4c-2.1,0-3.8,1.7-3.8,3.7c-0.4,17.2,6,42.6,25.2,62.3c16.2,16.6,38.5,25.3,64.5,25.3
				h322.8c4.4,0,8-3.6,8.1-8V107c0-4.4-3.6-8-8.1-8V98.8z"/>
		</g>
		<path class="st7" d="M992.3,155.8c-36.3,0-65.8,27.9-65.8,62.4s29.4,62.4,65.8,62.4c36.3,0,65.8-27.9,65.8-62.4
			S1028.7,155.8,992.3,155.8z M992,262.4c-24.4,0-44.1-19.7-44.1-44.1s19.7-44.1,44.1-44.1c24.4,0,44.1,19.7,44.1,44.1
			S1016.4,262.4,992,262.4C992.1,262.4,992,262.4,992,262.4z"/>
		<path class="st8" d="M909.8,196.9c0-42-44.4-42-44.4-42h-56.2v124.8H831v-38.3h34.3l21.6,37.4h22.8L883.8,238
			C883.9,238,909.8,232.2,909.8,196.9z M865.4,223.3h-34.3v-49.9h34.3c0,0,24.7,0,24.7,25S865.4,223.3,865.4,223.3L865.4,223.3z"/>
		<polygon class="st8" points="783.1,154.9 694.8,154.9 694.8,279.7 783.1,279.7 783.1,261.5 715.9,261.5 715.9,226.2 775.9,226.2 
			775.9,207.7 715.9,207.5 715.7,173.4 783.1,173.4 		"/>
		<path class="st9" d="M624.7,154.9h-22.1l-53.8,124.8h22.6l10.6-29.5h61.4l12.2,29.5h22.6L624.7,154.9z M589.9,232.2l22.3-53.5h1.7
			l21.8,53.5H589.9z"/>
		<path class="st7" d="M865.3,2.3c-36.2,0-65.6,28.1-65.6,62.8s29.4,62.8,65.6,62.8s65.6-28.1,65.6-62.8S901.5,2.3,865.3,2.3z
			 M865,109.6c-24.5,0.2-44.5-19.5-44.8-44c-0.2-24.5,19.5-44.5,44-44.8s44.5,19.5,44.8,44c0,0.1,0,0.3,0,0.4
			C909.1,89.7,889.4,109.5,865,109.6L865,109.6L865,109.6z"/>
		<path class="st8" d="M782.9,43.9c0-42-44.4-42-44.4-42h-56.2v124.8h21.8V88.3h34.3l21.6,37.4h22.8l-25.9-40.8
			C757,84.9,782.9,79.2,782.9,43.9z M738.5,70.3h-34.3V20.4h34.3c0,0,24.7,0,24.7,25S738.5,70.3,738.5,70.3z"/>
		<path class="st8" d="M619.7,2.5h-55.3v122.8h21.8V88.9h33.5c0,0,43.2,0,43.2-43C662.9,2.5,619.7,2.5,619.7,2.5z M620.5,70.9h-34.3
			V21h34.3c0,0,22.9,0,22.9,25S620.5,70.9,620.5,70.9z"/>
	</g>
</g>
</svg>
