<svg width="131" height="36" viewBox="0 0 131 36" fill="none" xmlns="http://www.w3.org/2000/svg">
<path d="M32.031 0.0107015C41.9832 0.0107015 51.9459 0.0107015 61.8981 0.0107015C62.34 0.0107015 62.7713 0.0107015 63.2131 0.0428062C63.9075 0.0856124 64.3598 0.470868 64.4861 1.16647C64.5492 1.50892 64.5703 1.87277 64.5703 2.22592C64.5703 5.02973 64.5703 7.82283 64.5703 10.6266C64.5703 11.3757 64.4545 11.5149 63.7181 11.5149C59.1733 11.547 54.6391 11.5898 50.0943 11.5791C38.0907 11.5577 26.0765 11.5042 14.0728 11.4935C12.3159 11.4935 10.5801 11.3222 8.92839 10.8193C5.35149 9.73841 2.4058 7.74792 0.88036 4.10939C0.491109 3.16766 0.301743 2.12961 0.133419 1.11296C-0.0138655 0.149822 0.154459 0.0321046 1.11181 0.0321046C5.45669 0.0214031 9.80158 0 14.1465 0C20.1115 0 26.066 0 32.031 0.0107015C32.031 0 32.031 0.0107015 32.031 0.0107015Z" fill="white"/>
<path d="M12.6 12.5529C12.8735 12.5529 13.0629 12.5529 13.2522 12.5529C29.9795 12.5529 46.7068 12.5529 63.4341 12.5529C64.3598 12.5529 64.5177 12.6706 64.5282 13.6124C64.5597 16.8014 64.5492 20.0012 64.5703 23.1903C64.5703 23.6932 64.3072 23.7681 63.9075 23.7681C61.5194 23.7788 59.1418 23.8109 56.7537 23.8002C46.1808 23.7895 35.6079 23.7574 25.035 23.7574C23.3096 23.7574 21.5948 23.629 19.9326 23.1689C18.2704 22.698 16.766 21.8847 15.5772 20.5898C13.8729 18.7277 12.7893 16.5339 12.6 13.9548C12.5684 13.5161 12.6 13.0666 12.6 12.5529Z" fill="white"/>
<path d="M43.5297 24.6564C50.189 24.6564 56.8589 24.6564 63.5182 24.6564C64.2652 24.6564 64.5282 24.8918 64.5282 25.673C64.5387 28.8086 64.5387 31.9548 64.5387 35.0904C64.5387 35.8074 64.3283 36 63.6655 36C53.3241 35.9893 42.9826 35.9679 32.6306 35.9786C31.284 35.9786 29.9479 35.8181 28.7066 35.3579C26.9707 34.7158 25.6662 33.4744 24.7194 31.8692C23.5937 29.975 23.0572 27.8775 22.8257 25.6944C22.8152 25.5874 22.8152 25.4804 22.8152 25.3734C22.8467 24.6992 22.8678 24.6671 23.5516 24.6671C30.211 24.6564 36.8703 24.6564 43.5297 24.6564Z" fill="white"/>
<path d="M107.041 0.535065C110.67 0.588572 113.679 2.56836 114.805 5.72531C116.52 10.5517 113.858 15.9667 108.166 16.6088C105.2 16.9405 102.58 16.1914 100.581 13.8371C97.1306 9.7919 98.4351 2.21521 105.063 0.791902C105.715 0.652782 106.378 0.620677 107.041 0.535065ZM111.785 8.65754C111.785 8.46491 111.796 8.26158 111.785 8.06895C111.67 5.86443 110.05 4.00237 107.956 3.64921C105.557 3.25326 103.432 4.41973 102.601 6.59214C102.264 7.48037 102.18 8.4007 102.286 9.32103C102.475 10.9798 103.222 12.3068 104.705 13.0987C107.703 14.736 111.806 12.9596 111.785 8.65754Z" fill="white"/>
<path d="M122.064 35.786C118.434 35.7325 115.425 33.7527 114.3 30.5957C112.585 25.7693 115.247 20.3543 120.938 19.7122C123.863 19.3912 126.472 20.1082 128.45 22.409C130.469 24.7527 130.859 27.5244 129.901 30.4245C128.965 33.2604 126.882 34.887 124.041 35.5184C123.389 35.6682 122.716 35.7004 122.064 35.786ZM126.829 27.7063C126.829 27.5137 126.84 27.3103 126.829 27.1177C126.714 24.9132 125.094 23.0511 123 22.698C120.601 22.302 118.476 23.4685 117.645 25.6409C117.298 26.5398 117.224 27.4816 117.34 28.4233C117.54 30.0606 118.287 31.3662 119.749 32.1474C122.748 33.7741 126.85 32.0083 126.829 27.7063Z" fill="white"/>
<path d="M84.138 0.898926C84.5273 0.898926 84.8955 0.898926 85.2531 0.898926C87.5255 0.93103 89.8084 0.888224 92.0808 1.01664C94.5952 1.16646 96.5835 2.7824 97.099 4.95481C97.6881 7.49108 96.9202 10.0809 94.3848 11.3008C94.3427 11.3222 94.3006 11.365 94.1849 11.4399C94.7425 12.2533 95.3 13.0666 95.8471 13.8799C96.3941 14.6825 96.9307 15.4851 97.5409 16.3627C96.31 16.3627 95.1738 16.3734 94.0481 16.352C93.9008 16.352 93.722 16.17 93.6273 16.0309C92.8172 14.8751 91.9967 13.7087 91.2287 12.5208C90.9972 12.157 90.7342 12.0392 90.3239 12.0499C89.4297 12.082 88.546 12.0606 87.5781 12.0606C87.5781 13.516 87.5781 14.9073 87.5781 16.3413C86.3893 16.3413 85.2847 16.3413 84.138 16.3413C84.138 11.2045 84.138 6.09988 84.138 0.898926ZM87.5676 9.21403C88.8511 9.21403 90.0714 9.31034 91.2602 9.19262C92.9224 9.0321 93.7746 8.04756 93.7851 6.53864C93.7956 4.96551 92.9961 4.05588 91.2813 3.83115C90.4712 3.72413 89.6401 3.75624 88.8195 3.75624C87.5676 3.74554 87.5676 3.75624 87.5676 4.99762C87.5676 6.38882 87.5676 7.76932 87.5676 9.21403Z" fill="white"/>
<path d="M109.324 30.478C110.449 32.126 111.543 33.7313 112.701 35.4221C111.449 35.4221 110.302 35.4328 109.166 35.4007C109.029 35.4007 108.861 35.1974 108.756 35.0476C107.935 33.8704 107.114 32.6932 106.325 31.4947C106.136 31.2164 105.926 31.0987 105.589 31.1094C104.779 31.1308 103.979 31.1308 103.169 31.1094C102.822 31.0987 102.706 31.2271 102.717 31.5696C102.727 32.6397 102.717 33.7099 102.717 34.78C102.717 34.9727 102.717 35.1653 102.717 35.39C101.549 35.39 100.434 35.39 99.2978 35.39C99.2978 30.2533 99.2978 25.1379 99.2978 19.9477C99.6555 19.9477 100.003 19.9477 100.35 19.9477C102.212 19.9477 104.063 19.937 105.926 19.9477C107.146 19.9584 108.335 20.1403 109.45 20.6647C111.428 21.6064 112.406 23.2331 112.448 25.4162C112.49 27.5458 111.649 29.2152 109.744 30.2426C109.629 30.3068 109.523 30.371 109.324 30.478ZM102.717 28.2735C103.99 28.2735 105.158 28.3484 106.325 28.2521C107.966 28.1237 108.913 27.1391 108.934 25.673C108.966 24.0464 108.177 23.0832 106.462 22.8906C105.336 22.7622 104.19 22.8264 103.054 22.7943C102.706 22.7836 102.717 23.019 102.717 23.2545C102.717 24.0785 102.717 24.8918 102.717 25.7158C102.717 26.5505 102.717 27.3853 102.717 28.2735Z" fill="white"/>
<path d="M96.4678 19.9798C96.4678 20.9108 96.4678 21.8098 96.4678 22.7622C93.8272 22.7622 91.1972 22.7622 88.546 22.7622C88.546 23.9394 88.546 25.0523 88.546 26.2402C90.8605 26.2402 93.175 26.2402 95.5315 26.2402C95.5315 27.1819 95.5315 28.0488 95.5315 28.9798C93.2171 28.9798 90.9026 28.9798 88.546 28.9798C88.546 30.1998 88.546 31.3448 88.546 32.5648C91.2813 32.5648 94.0061 32.5648 96.7624 32.5648C96.7624 33.5279 96.7624 34.4269 96.7624 35.3686C92.9014 35.3686 89.0194 35.3686 85.1059 35.3686C85.1059 30.2426 85.1059 25.1272 85.1059 19.9691C88.8722 19.9798 92.6384 19.9798 96.4678 19.9798Z" fill="white"/>
<path d="M72.3132 16.3412C71.1349 16.3412 70.0408 16.3412 68.8941 16.3412C68.8941 11.2152 68.8941 6.08917 68.8941 0.931022C69.0203 0.92032 69.1571 0.898917 69.2834 0.898917C71.4085 0.898917 73.523 0.866813 75.6481 0.909619C76.4582 0.931022 77.2998 1.04874 78.0783 1.27347C80.6137 1.99047 82.0445 3.92745 82.034 6.52793C82.0234 9.14981 80.5716 11.0761 77.9942 11.761C77.2051 11.975 76.374 12.0392 75.5535 12.0927C74.6803 12.1462 73.7966 12.1355 72.9234 12.0927C72.3974 12.0713 72.2711 12.264 72.2922 12.7669C72.3342 13.9334 72.3132 15.1106 72.3132 16.3412ZM72.3132 9.22472C73.5862 9.22472 74.7855 9.31033 75.9637 9.20332C77.6365 9.05349 78.5202 8.07965 78.5307 6.59214C78.5517 4.98691 77.7522 4.04517 76.0163 3.84184C74.8907 3.71342 73.744 3.76693 72.6078 3.77763C72.5131 3.77763 72.3342 4.02377 72.3237 4.16289C72.2922 4.78358 72.3132 5.40427 72.3132 6.03566C72.3132 7.07371 72.3132 8.11176 72.3132 9.22472Z" fill="white"/>
<path d="M83.7803 35.4221C82.6547 35.4221 81.5711 35.4328 80.4875 35.4007C80.3402 35.4007 80.1403 35.1974 80.0667 35.0476C79.6985 34.2021 79.3513 33.346 79.0251 32.4792C78.9094 32.1795 78.7411 32.0939 78.436 32.0939C76.353 32.1046 74.2595 32.1046 72.1764 32.0939C71.8608 32.0939 71.703 32.1902 71.5978 32.4899C71.2717 33.3567 70.9245 34.2128 70.5563 35.0583C70.4827 35.2188 70.2512 35.4007 70.0829 35.4114C69.0519 35.4435 68.0209 35.4328 66.9058 35.4328C66.9794 35.2295 67.032 35.069 67.0951 34.9191C69.1992 30.1034 71.3032 25.2877 73.3968 20.4721C73.5546 20.1082 73.7229 19.9263 74.1648 19.9477C75.0064 19.9905 75.848 19.9477 76.6896 19.9798C76.8685 19.9905 77.1315 20.1296 77.1946 20.2901C79.3934 25.2556 81.5605 30.2319 83.7382 35.2081C83.7593 35.2402 83.7593 35.2937 83.7803 35.4221ZM72.9023 29.3864C74.5645 29.3864 76.1215 29.3864 77.7627 29.3864C76.9527 27.3746 76.1636 25.4483 75.3325 23.3936C74.4804 25.4697 73.7019 27.396 72.9023 29.3864Z" fill="white"/>
</svg>
