<?xml version="1.0" encoding="utf-8"?>
<!-- Generator: Adobe Illustrator 24.1.2, SVG Export Plug-In . SVG Version: 6.00 Build 0)  -->
<svg version="1.1" id="Camada_1" xmlns="http://www.w3.org/2000/svg" xmlns:xlink="http://www.w3.org/1999/xlink" x="0px" y="0px"
	 viewBox="0 0 447.1 449.1" style="enable-background:new 0 0 447.1 449.1;" xml:space="preserve">
<path d="M0,449.1c5.1-18.9,10.1-37,15-55.1c5-18.3,9.9-36.6,15.1-54.8c1-3.4,0.7-6.2-1-9.4c-20-36.5-29.2-75.6-27.2-117.1
	C4.8,154.8,27,105,68.3,64.1c34.6-34.2,76.1-55.4,124.3-61.8c70.2-9.4,132.2,9.8,184.4,58.1c36.3,33.7,59.2,75.4,66.9,124.3
	c11.7,73.9-8.1,138.9-60,193.2c-34.6,36.3-77.3,57.9-126.8,65.2c-46.7,6.9-91.5-0.5-133.7-21.9c-4-2-7.3-2.5-11.7-1.3
	c-35.6,9.6-71.3,18.8-107,28.2C3.4,448.5,2.1,448.7,0,449.1z M53.1,396.6c2.4-0.5,3.9-0.7,5.5-1.1c19.1-5,38.3-9.8,57.3-15.2
	c5.3-1.5,9.3-0.8,13.9,2c37.3,22.1,77.6,30.2,120.4,24.3c43.2-6,80.1-25.2,109.7-57.3c39.5-42.8,55.6-93.6,48.4-151.2
	c-5.4-43.3-24.6-80.2-56.6-110.1c-42.9-40.1-94-56.5-151.9-49.1c-48.3,6.2-88.3,28.9-119,66.7C46.4,148,33.3,196.7,41.1,250.9
	c3.8,26.6,13.5,51,28.1,73.5c1.8,2.7,2.2,5.1,1.3,8.3c-4.8,16.8-9.3,33.6-13.9,50.4C55.4,387.4,54.3,391.7,53.1,396.6z M300.9,327.2
	c28.6-10.7,35.7-23,36.2-46.8c0-2.2-1.4-5.7-3.2-6.6c-15.9-7.9-32-15.5-48.1-23c-4.3-2-7.5-0.3-10.3,3.4c-5.5,7.1-11.3,14-16.9,21
	c-3.2,4-6.9,4.7-11.5,2.9c-33.1-13.1-58.5-35.3-76.6-65.8c-3.3-5.6-2.8-7.5,1.3-12.5c4.8-5.9,9.3-12.1,13.7-18.3
	c2.3-3.3,1.9-6.8,0.3-10.4c-5.2-12.1-10.2-24.2-15.2-36.4c-6.1-14.6-6.1-14.4-21.8-14.9c-8-0.2-14.1,2.6-19.4,8.3
	c-17.4,18.6-21.6,40.2-15,64.3c5.2,18.9,16.3,34.5,28,49.7c25.4,33,55.1,60.6,94.7,75.8c14.7,5.6,29.3,12.2,45.7,12.2
	C288.9,329.2,295.3,329.3,300.9,327.2z"/>
</svg>
