<?xml version="1.0" standalone="no"?>
<!DOCTYPE svg PUBLIC "-//W3C//DTD SVG 20010904//EN"
 "http://www.w3.org/TR/2001/REC-SVG-20010904/DTD/svg10.dtd">
<svg version="1.0" xmlns="http://www.w3.org/2000/svg"
 width="656.000000pt" height="656.000000pt" viewBox="0 0 656.000000 656.000000"
 preserveAspectRatio="xMidYMid meet">
<metadata>
Created by potrace 1.14, written by Peter Selinger 2001-2017
</metadata>
<g transform="translate(0.000000,656.000000) scale(0.100000,-0.100000)"
fill="#000000" stroke="none">
<path d="M451 4975 c-1 -6 -38 -10 -93 -9 -54 1 -99 -4 -107 -10 -11 -8 -13
-8 -7 2 8 14 -19 12 -43 -2 -10 -6 -12 -5 -7 2 5 8 2 10 -8 6 -9 -3 -13 -10
-10 -15 3 -5 0 -9 -6 -9 -6 0 -8 -4 -5 -10 3 -5 0 -10 -7 -10 -8 0 -9 -3 -3
-8 14 -10 17 -32 4 -32 -6 0 -7 -5 -2 -12 4 -7 8 -24 9 -38 1 -14 9 -54 18
-90 9 -36 19 -76 22 -90 3 -13 17 -47 30 -75 14 -27 26 -52 25 -55 0 -3 10
-21 21 -40 12 -19 21 -38 20 -42 -1 -5 3 -8 9 -8 5 0 7 -4 4 -10 -3 -5 1 -10
10 -10 9 0 14 -4 11 -8 -3 -5 4 -18 14 -30 11 -12 20 -24 20 -27 0 -4 29 -36
65 -71 36 -36 65 -62 65 -59 0 3 8 -3 18 -12 34 -33 77 -65 102 -76 14 -6 29
-17 33 -24 4 -7 15 -13 22 -13 8 0 15 -3 15 -7 0 -5 10 -13 23 -19 119 -60
154 -77 167 -79 8 -2 15 -4 15 -5 0 -1 11 -4 25 -6 14 -3 27 -9 28 -14 2 -6 8
-8 13 -4 5 3 9 1 9 -5 0 -6 7 -8 15 -4 9 3 25 -3 37 -13 12 -11 18 -13 13 -5
-5 9 -3 12 6 9 8 -3 13 -12 11 -19 -1 -10 2 -9 11 3 9 12 17 14 30 7 9 -6 22
-7 27 -4 6 3 10 1 10 -5 0 -6 5 -8 12 -4 8 5 9 2 4 -11 -5 -15 -4 -16 9 -5 8
7 25 10 37 7 13 -3 34 -8 48 -11 14 -3 49 -7 77 -7 36 -1 50 -5 46 -13 -4 -7
-1 -7 8 1 18 14 59 13 59 -2 0 -5 5 -3 10 5 9 13 10 13 10 0 0 -13 1 -13 10 0
9 13 10 13 10 0 0 -12 2 -12 9 -2 11 18 20 17 38 -5 8 -10 12 -13 9 -6 -4 6
-2 14 4 18 5 3 10 1 10 -4 0 -6 5 -11 11 -11 5 0 8 4 5 9 -5 8 22 8 32 1 7 -7
49 -5 64 2 10 5 20 4 24 -3 4 -8 9 -7 15 2 7 11 9 11 9 1 0 -9 5 -10 19 -2 11
5 22 6 25 1 5 -8 21 -8 89 2 15 2 27 0 27 -5 0 -5 9 -4 19 2 11 5 22 6 25 1 6
-9 57 -8 74 3 6 3 14 1 18 -5 4 -8 9 -7 15 2 7 11 9 11 9 1 0 -9 5 -10 19 -3
10 6 21 7 25 4 4 -4 21 -8 38 -9 20 -2 27 0 19 5 -8 5 1 8 23 7 20 0 36 -5 36
-9 0 -4 9 -3 19 3 11 5 22 6 25 1 6 -9 57 -8 74 3 6 3 14 1 18 -5 4 -8 9 -7
15 2 7 11 9 11 9 1 0 -9 5 -10 19 -2 11 5 22 6 25 1 5 -8 21 -8 89 2 15 2 27
0 27 -5 0 -5 10 -4 21 3 12 6 19 7 16 2 -4 -5 0 -10 8 -10 8 0 12 4 9 9 -8 13
29 6 39 -7 4 -6 11 -4 17 5 7 11 10 11 10 2 0 -9 5 -10 19 -2 14 7 22 7 26 0
4 -6 11 -7 17 -4 15 9 118 12 123 4 5 -9 37 -6 53 4 7 4 12 2 12 -4 0 -7 6 -8
19 0 14 7 22 7 27 -1 4 -8 9 -7 15 2 6 10 9 10 9 2 0 -9 7 -10 25 -3 16 6 26
6 31 -1 4 -8 9 -7 15 2 7 11 9 11 9 1 0 -9 5 -10 18 -3 13 7 23 6 30 -1 9 -9
12 -8 12 2 0 13 2 13 10 0 9 -13 10 -13 10 0 0 13 1 13 10 0 9 -13 11 -13 20
0 8 12 10 12 10 1 0 -11 3 -11 15 -1 12 10 15 10 15 0 0 -9 3 -10 13 -1 10 8
17 7 25 -1 9 -9 12 -9 12 2 0 13 2 13 10 0 9 -13 11 -13 20 0 9 13 10 13 10 0
0 -13 1 -13 10 0 9 13 11 13 20 0 5 -8 10 -11 10 -6 0 5 7 3 15 -4 13 -11 14
-10 8 6 -6 16 -4 17 8 7 9 -7 20 -8 29 -3 17 11 32 3 24 -13 -3 -7 0 -5 8 3
17 19 74 19 70 -1 -2 -11 0 -11 10 1 14 16 81 22 71 7 -3 -5 3 -4 14 2 14 7
23 7 31 -1 6 -6 16 -7 24 -2 17 11 39 11 61 1 10 -5 17 -4 17 3 0 6 5 8 13 3
20 -12 37 -12 37 0 0 7 5 5 10 -3 9 -13 10 -13 10 0 0 9 3 11 8 5 10 -15 46
-19 37 -5 -6 9 -2 9 12 1 14 -7 24 -7 33 2 10 9 11 9 6 0 -9 -16 10 -17 20 -2
4 8 9 7 14 -2 7 -10 11 -10 24 0 9 8 16 9 16 4 0 -6 20 -10 45 -9 25 1 45 5
45 9 0 5 6 5 13 0 18 -11 60 -12 74 -1 7 5 18 6 25 2 21 -13 38 -13 38 -1 0 9
2 9 8 0 8 -12 29 -13 49 0 6 4 15 3 18 -3 5 -8 11 -8 20 0 10 8 15 8 21 -1 5
-8 3 -9 -6 -4 -9 5 -11 4 -6 -4 5 -7 12 -9 19 -3 7 5 30 8 52 7 22 -2 48 2 59
7 13 7 16 7 11 -1 -4 -8 3 -10 25 -6 24 4 30 2 24 -7 -6 -10 -5 -10 7 -2 8 6
24 10 37 8 17 -3 21 0 16 8 -6 10 -4 10 7 2 18 -15 171 -16 162 -1 -4 6 -1 7
8 1 21 -13 133 -13 141 0 6 8 8 8 8 0 0 -8 55 -11 188 -10 103 1 193 -2 200
-7 7 -6 12 -6 12 0 0 5 27 8 61 6 43 -2 58 0 53 9 -5 8 -3 8 7 2 20 -13 359
-12 359 1 0 7 3 7 8 0 9 -14 133 -15 125 -2 -4 6 -1 7 8 1 19 -11 69 -12 69
-1 0 5 6 5 13 -2 10 -8 17 -7 27 2 10 9 11 9 6 -1 -8 -13 19 -12 43 2 8 5 16
4 20 -2 7 -12 29 -11 50 2 10 6 12 5 7 -2 -4 -7 -3 -12 3 -12 5 0 13 5 16 10
4 6 12 7 18 3 17 -10 47 -11 47 -1 0 5 5 6 10 3 6 -4 7 -12 3 -18 -5 -9 -3 -9
8 0 8 6 23 13 34 15 51 8 51 1 49 504 -1 311 -5 477 -12 494 -11 27 -62 88
-62 75 0 -4 -7 -2 -15 5 -12 10 -15 10 -15 -1 0 -10 -3 -10 -8 -3 -4 7 -38 11
-85 10 -44 -1 -81 2 -84 7 -2 4 -9 4 -15 1 -13 -9 -575 -7 -588 1 -6 3 -10 3
-10 -2 0 -10 -93 -8 -109 1 -6 4 -11 3 -11 -2 0 -5 -20 -6 -45 -2 -25 4 -45 4
-45 1 0 -3 -175 -4 -390 -1 -215 3 -390 3 -390 0 0 -3 -27 -3 -60 0 -33 3 -60
3 -60 0 0 -3 -27 -3 -60 0 -33 3 -60 3 -60 -1 0 -4 -14 -4 -30 1 -17 5 -30 5
-30 0 0 -5 -13 -5 -30 0 -17 5 -30 6 -30 2 0 -9 -63 -7 -78 2 -7 4 -12 1 -12
-6 0 -9 -3 -9 -10 2 -5 8 -10 11 -10 5 0 -10 -76 -12 -86 -2 -3 3 -16 2 -29
-3 -14 -5 -26 -5 -34 3 -7 7 -11 7 -11 1 0 -7 -16 -8 -45 -4 -25 4 -45 4 -45
1 0 -3 -16 -6 -35 -6 -19 0 -35 5 -35 10 0 7 -3 7 -8 0 -4 -5 -27 -10 -52 -10
-25 0 -48 5 -52 10 -5 7 -8 7 -8 0 0 -5 -18 -10 -40 -10 -22 0 -40 5 -40 10 0
7 -3 7 -8 0 -4 -5 -43 -10 -87 -10 -44 0 -83 5 -87 10 -5 7 -8 7 -8 0 0 -11
-111 -12 -129 -1 -6 4 -11 4 -11 -1 0 -12 -244 -10 -252 2 -5 7 -8 6 -8 0 0
-9 -42 -12 -60 -5 -3 1 -9 1 -15 0 -24 -5 -773 -2 -782 3 -5 3 -22 0 -37 -8
-14 -8 -24 -10 -21 -5 4 6 -7 8 -25 6 -17 -2 -33 0 -36 5 -2 4 -12 5 -20 2
-28 -10 -894 -9 -898 2 -3 7 -5 7 -5 0 -1 -11 -347 -13 -357 -2 -3 3 -16 2
-29 -3 -13 -5 -26 -6 -29 -3 -3 3 -13 0 -23 -8 -14 -12 -16 -12 -8 0 6 11 4
13 -8 8 -9 -3 -18 -1 -21 6 -2 7 -5 7 -5 2z"/>
<path d="M1087 3909 c7 -7 15 -10 18 -7 3 3 -2 9 -12 12 -14 6 -15 5 -6 -5z"/>
<path d="M1175 3890 c3 -5 8 -10 11 -10 2 0 4 5 4 10 0 6 -5 10 -11 10 -5 0
-7 -4 -4 -10z"/>
<path d="M1352 3785 c-3 -5 -4 -45 -3 -90 5 -119 6 -129 14 -142 5 -7 5 -17 2
-23 -3 -5 -2 -10 4 -10 6 0 8 -7 5 -15 -4 -8 -1 -21 5 -29 6 -7 8 -16 4 -19
-3 -4 0 -7 7 -7 7 0 11 -3 7 -6 -3 -4 0 -19 9 -35 8 -16 12 -29 10 -29 -3 0 6
-21 19 -46 14 -26 23 -50 20 -54 -3 -4 2 -11 11 -14 8 -3 13 -10 9 -15 -3 -6
3 -14 12 -20 10 -6 14 -11 10 -11 -9 0 40 -74 72 -107 12 -12 21 -27 21 -33 0
-6 4 -9 9 -6 5 3 12 -6 15 -20 4 -15 9 -24 12 -21 3 3 21 -10 39 -29 18 -19
37 -34 42 -34 5 0 16 -8 25 -17 26 -28 46 -43 58 -43 6 0 8 -5 4 -12 -4 -6 -3
-8 3 -5 5 3 27 -6 48 -20 21 -14 35 -19 31 -12 -4 8 1 4 12 -9 14 -15 22 -18
25 -10 4 10 6 10 6 1 1 -7 12 -13 26 -13 14 0 25 -4 25 -8 0 -5 12 -14 26 -20
20 -10 24 -10 18 0 -6 10 -4 11 7 1 7 -7 21 -13 32 -13 12 0 16 -4 11 -12 -5
-9 -2 -9 9 1 9 7 17 9 17 4 0 -6 12 -9 28 -8 38 2 83 -14 76 -28 -5 -9 -4 -9
6 0 8 7 22 8 41 3 16 -5 29 -7 29 -4 0 3 9 0 19 -6 12 -6 22 -6 26 -1 3 6 17
6 35 1 21 -6 30 -5 30 3 0 8 3 8 11 0 8 -8 20 -8 35 -3 13 5 24 6 24 1 0 -11
33 -10 48 2 6 5 12 5 12 1 0 -12 3712 -15 3725 -4 6 5 17 5 25 0 19 -12 33
-13 25 -1 -3 5 -2 12 3 15 4 2 8 222 7 488 -1 529 -2 547 -54 549 -14 0 -1119
1 -2454 2 -1537 1 -2431 -2 -2435 -8z"/>
<path d="M2315 2652 c14 -10 17 -32 4 -32 -8 0 -8 -5 1 -15 7 -8 9 -15 4 -15
-5 0 -9 -11 -9 -25 0 -14 2 -25 6 -25 3 0 6 -10 6 -22 2 -30 9 -76 17 -108 3
-13 8 -42 12 -64 3 -22 8 -44 11 -48 2 -5 7 -20 9 -35 3 -15 9 -32 15 -39 5
-6 6 -14 2 -17 -3 -4 -2 -7 3 -7 5 0 10 -10 11 -22 1 -11 6 -24 10 -27 4 -3
10 -15 11 -26 2 -11 8 -23 14 -26 5 -3 10 -10 10 -15 0 -5 10 -30 23 -56 13
-25 20 -50 17 -54 -4 -4 -2 -5 3 -2 6 3 16 0 23 -8 7 -8 8 -14 2 -14 -10 0 -2
-11 56 -73 18 -19 30 -38 27 -41 -4 -3 -1 -6 6 -6 7 0 25 -13 39 -28 41 -43
123 -102 133 -96 5 3 9 2 9 -3 0 -4 15 -14 33 -22 17 -8 34 -18 37 -22 3 -5
15 -10 25 -12 11 -1 26 -7 34 -11 10 -7 12 -5 6 5 -6 11 -5 12 6 2 7 -7 21
-13 31 -13 10 0 18 -5 18 -10 0 -7 7 -7 20 0 16 8 22 8 26 -4 4 -9 15 -13 31
-10 13 3 22 1 19 -4 -3 -5 1 -9 9 -9 8 0 11 5 8 11 -4 6 0 5 8 -1 12 -10 18
-10 29 0 9 8 11 8 6 0 -4 -8 9 -11 48 -9 31 2 54 0 52 -3 -5 -8 181 -4 201 3
8 3 11 1 8 -4 -3 -6 -1 -10 4 -10 6 0 11 6 11 13 0 7 3 8 8 2 4 -5 31 -10 60
-10 28 0 52 5 52 10 0 6 5 3 10 -5 8 -12 11 -13 19 -1 7 11 9 11 14 0 5 -12 6
-12 6 0 1 11 4 11 16 1 12 -10 15 -10 15 0 0 10 3 10 15 0 11 -9 15 -9 15 -1
0 7 5 9 12 5 20 -13 68 -13 61 0 -4 6 1 5 10 -3 14 -11 17 -11 17 0 0 11 2 11
10 -1 6 -9 10 -11 10 -3 0 7 6 10 13 7 21 -8 286 -10 274 -2 -17 11 -3 10 27
-2 17 -6 26 -6 26 0 0 6 5 10 11 10 5 0 8 -3 6 -7 -3 -5 6 -8 19 -8 13 0 24 3
24 8 0 4 5 7 11 7 5 0 8 -3 6 -7 -3 -5 6 -8 19 -8 13 0 24 3 24 8 0 4 5 7 11
7 5 0 8 -3 6 -7 -3 -5 154 -8 349 -8 229 0 354 4 354 10 0 6 5 3 10 -5 6 -9
10 -10 10 -3 0 8 9 9 30 3 19 -5 30 -5 30 1 0 6 6 7 12 3 17 -11 48 -12 48 -3
0 5 6 7 13 5 46 -15 68 -16 61 -4 -6 10 -3 9 9 -1 14 -11 17 -11 17 0 0 11 2
11 10 -1 7 -10 10 -11 10 -2 0 10 4 10 20 0 17 -11 22 -10 30 2 6 9 10 10 10
3 0 -8 9 -9 30 -3 19 5 28 5 25 -1 -4 -5 -2 -9 4 -9 5 0 12 6 14 13 3 6 6 8 6
2 1 -11 92 -12 110 -1 6 4 11 2 11 -3 0 -6 5 -11 11 -11 5 0 7 6 3 13 -5 8 -2
8 9 -2 10 -8 17 -9 17 -3 0 7 10 8 30 2 17 -5 30 -5 30 0 0 4 16 4 35 0 24 -5
35 -4 35 4 0 6 5 4 10 -4 9 -13 11 -13 20 0 9 13 10 13 10 0 0 -9 3 -11 8 -5
10 14 42 15 42 1 0 -6 5 -4 10 4 6 9 10 10 10 3 0 -8 9 -9 30 -3 19 5 28 5 25
-1 -4 -5 -2 -9 4 -9 5 0 12 6 14 13 3 6 6 8 6 2 1 -10 110 -11 137 -1 9 3 12
1 9 -4 -3 -6 -1 -10 4 -10 6 0 11 5 11 12 0 9 3 9 12 0 16 -16 31 -15 22 1 -5
8 -2 8 9 -2 13 -10 17 -10 17 -1 0 10 3 10 15 0 11 -9 15 -9 15 -1 0 8 5 9 17
2 10 -5 26 -5 41 0 15 6 21 5 17 -1 -3 -6 -2 -10 4 -10 5 0 13 5 17 11 4 8 9
7 15 -2 6 -10 15 -5 36 18 l28 31 0 486 c0 267 -3 486 -6 486 -3 0 -11 11 -17
25 l-12 25 -1977 0 c-1088 0 -1973 -4 -1968 -8z"/>
<path d="M6516 1665 c-3 -8 -1 -15 4 -15 6 0 10 7 10 15 0 8 -2 15 -4 15 -2 0
-6 -7 -10 -15z"/>
</g>
</svg>
